<svg xmlns="http://www.w3.org/2000/svg" viewBox="0 0 697.5 738.32"><defs><style>.cls-1{fill:none;stroke:#000;stroke-linecap:round;stroke-miterlimit:10;stroke-width:50px;}</style></defs><g id="Layer_2" data-name="Layer 2"><g id="Layer_1-2" data-name="Layer 1"><polyline class="cls-1" points="25.41 484.45 25.41 459.89 25.41 170.78"/><line class="cls-1" x1="672.5" y1="472.17" x2="672.5" y2="170.78"/><line class="cls-1" x1="348.96" y1="420.45" x2="348.96" y2="403.09"/><path class="cls-1" d="M25.41,459.89Q25,466,25,472.17t.41,12.28c4.15,61.59,39.32,117.09,94.11,158A332.13,332.13,0,0,0,187,681.1a398.08,398.08,0,0,0,109.39,29.08,436.68,436.68,0,0,0,52.38,3.14H349a436.72,436.72,0,0,0,52.89-3.23,398,398,0,0,0,109.09-29.17,331.75,331.75,0,0,0,67.24-38.61c58.29-43.61,94.32-103.74,94.32-170.14"/><path class="cls-1" d="M401.85,710.09a398,398,0,0,0,109.09-29.17,331.75,331.75,0,0,0,67.24-38.61c58.29-43.61,94.32-103.74,94.32-170.14V170.78c-70,0-134.8,16.62-187.73,44.8C457.75,147,410.82,84.85,349,32.71,287.2,84.83,240.33,147,213.33,215.46a379.08,379.08,0,0,0-14,42.74,365.14,365.14,0,0,0-12.12,93.32"/><path class="cls-1" d="M187,620.7v60.4a332.13,332.13,0,0,1-67.46-38.64c-54.79-40.92-90-96.42-94.11-158q-.4-6.1-.41-12.28t.41-12.28V170.78h.21c70,0,134.78,16.55,187.71,44.68C240.33,147,287.2,84.83,349,32.71,410.82,84.85,457.75,147,484.77,215.58a380.77,380.77,0,0,1,14.07,42.87,365.3,365.3,0,0,1,12.1,93.22"/><path class="cls-1" d="M349,420.45c.13-2.88.2-5.78.2-8.68s-.07-5.8-.2-8.68a184.4,184.4,0,0,0-10-51.57c-14.62-42.32-44.29-80.14-84.5-110.11a321.24,321.24,0,0,0-41.14-25.95C160.4,187.33,95.6,170.78,25.62,170.78h-.21V459.89Q25,466,25,472.17t.41,12.28c4.15,61.59,39.32,117.09,94.11,158"/><path class="cls-1" d="M578.18,642.31c58.29-43.61,94.32-103.74,94.32-170.14V170.78c-70,0-134.8,16.62-187.73,44.8a320.16,320.16,0,0,0-41.1,26c-40.12,29.95-69.71,67.72-84.31,110a183.64,183.64,0,0,0-10.2,60.25"/><polyline class="cls-1" points="186.98 351.67 186.98 620.7 186.98 681.1"/><polyline class="cls-1" points="510.94 351.67 510.94 620.52 510.94 680.92"/></g></g></svg>